# Blender 3.1.0
# www.blender.org
mtllib casa3.mtl
o Cube
v 0.730000 2.000000 -0.800000
v 0.730000 0.000000 -0.800000
v 0.730000 2.000000 0.800000
v 0.730000 0.000000 0.800000
v -0.730000 2.000000 -0.800000
v -0.730000 0.000000 -0.800000
v -0.730000 2.000000 0.800000
v -0.730000 0.000000 0.800000
vn -0.0000 1.0000 -0.0000
vn -0.0000 -0.0000 0.8000
vn -0.7300 -0.0000 -0.0000
vn -0.0000 -1.0000 -0.0000
vn 0.7300 -0.0000 -0.0000
vn -0.0000 -0.0000 -0.8000
vt 0.625000 0.500000
vt 0.375000 0.500000
vt 0.625000 0.750000
vt 0.375000 0.750000
vt 0.875000 0.500000
vt 0.625000 0.250000
vt 0.125000 0.500000
vt 0.375000 0.250000
vt 0.875000 0.750000
vt 0.625000 1.000000
vt 0.625000 0.000000
vt 0.375000 0.000000
vt 0.375000 1.000000
vt 0.125000 0.750000
s 0
usemtl madera
f 5/5/1 3/3/1 1/1/1
f 3/3/2 8/13/2 4/4/2
f 7/11/3 6/8/3 8/12/3
f 2/2/4 8/14/4 6/7/4
f 1/1/5 4/4/5 2/2/5
f 5/6/6 2/2/6 6/8/6
f 5/5/1 7/9/1 3/3/1
f 3/3/2 7/10/2 8/13/2
f 7/11/3 5/6/3 6/8/3
f 2/2/4 4/4/4 8/14/4
f 1/1/5 3/3/5 4/4/5
f 5/6/6 1/1/6 2/2/6
o Cube.001
v -8.207170 -0.486070 7.121983
v -8.207170 4.486070 7.121983
v -8.207170 -0.486070 -8.974098
v -8.207170 4.486070 -8.974098
v 0.653710 -0.486070 7.121983
v 0.653710 4.486070 7.121983
v 0.653710 -0.486070 -8.974098
v 0.653710 4.486070 -8.974098
vn -1.0000 -0.0000 -0.0000
vn -0.0000 -0.0000 -1.0000
vn 1.0000 -0.0000 -0.0000
vn -0.0000 -0.0000 1.0000
vn -0.0000 -1.0000 -0.0000
vn -0.0000 1.0000 -0.0000
vt 0.375000 0.000000
vt 0.375000 1.000000
vt 0.125000 0.750000
vt 0.625000 0.000000
vt 0.625000 1.000000
vt 0.875000 0.750000
vt 0.125000 0.500000
vt 0.375000 0.250000
vt 0.625000 0.250000
vt 0.875000 0.500000
vt 0.375000 0.750000
vt 0.625000 0.750000
vt 0.375000 0.500000
vt 0.625000 0.500000
s 0
usemtl rosa
f 10/18/7 11/22/7 9/15/7
f 12/23/8 15/27/8 11/22/8
f 16/28/9 13/25/9 15/27/9
f 14/26/10 9/16/10 13/25/10
f 15/27/11 9/17/11 11/21/11
usemtl roca
f 12/24/12 14/26/12 16/28/12
usemtl rosa
f 10/18/7 12/23/7 11/22/7
f 12/23/8 16/28/8 15/27/8
f 16/28/9 14/26/9 13/25/9
f 14/26/10 10/19/10 9/16/10
f 15/27/11 13/25/11 9/17/11
usemtl roca
f 12/24/12 10/20/12 14/26/12
o Cube.002
v -8.283306 3.458503 -8.355739
v -8.283306 6.985917 -8.355739
v -8.283306 3.458503 -8.836728
v -8.283306 6.985917 -8.836728
v -7.704327 3.458503 -8.355739
v -7.704327 6.985917 -8.355739
v -7.704327 3.458503 -8.836728
v -7.704327 6.985917 -8.836728
vn -1.0000 -0.0000 -0.0000
vn -0.0000 -0.0000 -1.0000
vn 1.0000 -0.0000 -0.0000
vn -0.0000 -0.0000 1.0000
vn -0.0000 -1.0000 -0.0000
vn -0.0000 1.0000 -0.0000
vt 0.375000 0.000000
vt 0.375000 1.000000
vt 0.125000 0.750000
vt 0.625000 0.000000
vt 0.625000 1.000000
vt 0.875000 0.750000
vt 0.125000 0.500000
vt 0.375000 0.250000
vt 0.625000 0.250000
vt 0.875000 0.500000
vt 0.375000 0.750000
vt 0.625000 0.750000
vt 0.375000 0.500000
vt 0.625000 0.500000
s 0
usemtl Material.001
f 18/32/13 19/36/13 17/29/13
f 20/37/14 23/41/14 19/36/14
f 24/42/15 21/39/15 23/41/15
f 22/40/16 17/30/16 21/39/16
f 23/41/17 17/31/17 19/35/17
f 20/38/18 22/40/18 24/42/18
f 18/32/13 20/37/13 19/36/13
f 20/37/14 24/42/14 23/41/14
f 24/42/15 22/40/15 21/39/15
f 22/40/16 18/33/16 17/30/16
f 23/41/17 21/39/17 17/31/17
f 20/38/18 18/34/18 22/40/18
o Cube.003
v -0.207862 3.387153 6.889433
v -0.207862 6.914567 6.889433
v -0.207862 3.387153 6.408445
v -0.207862 6.914567 6.408445
v 0.371117 3.387153 6.889433
v 0.371117 6.914567 6.889433
v 0.371117 3.387153 6.408445
v 0.371117 6.914567 6.408445
vn -1.0000 -0.0000 -0.0000
vn -0.0000 -0.0000 -1.0000
vn 1.0000 -0.0000 -0.0000
vn -0.0000 -0.0000 1.0000
vn -0.0000 -1.0000 -0.0000
vn -0.0000 1.0000 -0.0000
vt 0.375000 0.000000
vt 0.375000 1.000000
vt 0.125000 0.750000
vt 0.625000 0.000000
vt 0.625000 1.000000
vt 0.875000 0.750000
vt 0.125000 0.500000
vt 0.375000 0.250000
vt 0.625000 0.250000
vt 0.875000 0.500000
vt 0.375000 0.750000
vt 0.625000 0.750000
vt 0.375000 0.500000
vt 0.625000 0.500000
s 0
usemtl roca.001
f 26/46/19 27/50/19 25/43/19
f 28/51/20 31/55/20 27/50/20
f 32/56/21 29/53/21 31/55/21
f 30/54/22 25/44/22 29/53/22
f 31/55/23 25/45/23 27/49/23
f 28/52/24 30/54/24 32/56/24
f 26/46/19 28/51/19 27/50/19
f 28/51/20 32/56/20 31/55/20
f 32/56/21 30/54/21 29/53/21
f 30/54/22 26/47/22 25/44/22
f 31/55/23 29/53/23 25/45/23
f 28/52/24 26/48/24 30/54/24
o Cube.004
v 0.013008 3.464674 -8.335364
v 0.013008 6.992087 -8.335364
v 0.013008 3.464674 -8.816354
v 0.013008 6.992087 -8.816354
v 0.591987 3.464674 -8.335364
v 0.591987 6.992087 -8.335364
v 0.591987 3.464674 -8.816354
v 0.591987 6.992087 -8.816354
vn -1.0000 -0.0000 -0.0000
vn -0.0000 -0.0000 -1.0000
vn 1.0000 -0.0000 -0.0000
vn -0.0000 -0.0000 1.0000
vn -0.0000 -1.0000 -0.0000
vn -0.0000 1.0000 -0.0000
vt 0.375000 0.000000
vt 0.375000 1.000000
vt 0.125000 0.750000
vt 0.625000 0.000000
vt 0.625000 1.000000
vt 0.875000 0.750000
vt 0.125000 0.500000
vt 0.375000 0.250000
vt 0.625000 0.250000
vt 0.875000 0.500000
vt 0.375000 0.750000
vt 0.625000 0.750000
vt 0.375000 0.500000
vt 0.625000 0.500000
s 0
usemtl Material
f 34/60/25 35/64/25 33/57/25
f 36/65/26 39/69/26 35/64/26
f 40/70/27 37/67/27 39/69/27
f 38/68/28 33/58/28 37/67/28
f 39/69/29 33/59/29 35/63/29
f 36/66/30 38/68/30 40/70/30
f 34/60/25 36/65/25 35/64/25
f 36/65/26 40/70/26 39/69/26
f 40/70/27 38/68/27 37/67/27
f 38/68/28 34/61/28 33/58/28
f 39/69/29 37/67/29 33/59/29
f 36/66/30 34/62/30 38/68/30
o Cube.005
v -7.959476 3.439414 6.969310
v -7.959476 6.966827 6.969310
v -7.959476 3.439414 6.488322
v -7.959476 6.966827 6.488322
v -7.380496 3.439414 6.969310
v -7.380496 6.966827 6.969310
v -7.380496 3.439414 6.488322
v -7.380496 6.966827 6.488322
vn -1.0000 -0.0000 -0.0000
vn -0.0000 -0.0000 -1.0000
vn 1.0000 -0.0000 -0.0000
vn -0.0000 -0.0000 1.0000
vn -0.0000 -1.0000 -0.0000
vn -0.0000 1.0000 -0.0000
vt 0.375000 0.000000
vt 0.375000 1.000000
vt 0.125000 0.750000
vt 0.625000 0.000000
vt 0.625000 1.000000
vt 0.875000 0.750000
vt 0.125000 0.500000
vt 0.375000 0.250000
vt 0.625000 0.250000
vt 0.875000 0.500000
vt 0.375000 0.750000
vt 0.625000 0.750000
vt 0.375000 0.500000
vt 0.625000 0.500000
s 0
usemtl Material.002
f 42/74/31 43/78/31 41/71/31
f 44/79/32 47/83/32 43/78/32
f 48/84/33 45/81/33 47/83/33
f 46/82/34 41/72/34 45/81/34
f 47/83/35 41/73/35 43/77/35
f 44/80/36 46/82/36 48/84/36
f 42/74/31 44/79/31 43/78/31
f 44/79/32 48/84/32 47/83/32
f 48/84/33 46/82/33 45/81/33
f 46/82/34 42/75/34 41/72/34
f 47/83/35 45/81/35 41/73/35
f 44/80/36 42/76/36 46/82/36
o Cube.006
v -8.264163 6.833222 7.597357
v -8.264163 7.166778 7.597357
v -8.264163 6.833222 -8.726585
v -8.264163 7.166778 -8.726585
v 0.575988 6.833222 7.597357
v 0.575988 7.166778 7.597357
v 0.575988 6.833222 -8.726585
v 0.575988 7.166778 -8.726585
vn -1.0000 -0.0000 -0.0000
vn -0.0000 -0.0000 -1.0000
vn 1.0000 -0.0000 -0.0000
vn -0.0000 -0.0000 1.0000
vn -0.0000 -1.0000 -0.0000
vn -0.0000 1.0000 -0.0000
vt 0.375000 0.000000
vt 0.375000 1.000000
vt 0.125000 0.750000
vt 0.625000 0.000000
vt 0.625000 1.000000
vt 0.875000 0.750000
vt 0.125000 0.500000
vt 0.375000 0.250000
vt 0.625000 0.250000
vt 0.875000 0.500000
vt 0.375000 0.750000
vt 0.625000 0.750000
vt 0.375000 0.500000
vt 0.625000 0.500000
s 0
usemtl Material.003
f 50/88/37 51/92/37 49/85/37
f 52/93/38 55/97/38 51/92/38
f 56/98/39 53/95/39 55/97/39
f 54/96/40 49/86/40 53/95/40
f 55/97/41 49/87/41 51/91/41
f 52/94/42 54/96/42 56/98/42
f 50/88/37 52/93/37 51/92/37
f 52/93/38 56/98/38 55/97/38
f 56/98/39 54/96/39 53/95/39
f 54/96/40 50/89/40 49/86/40
f 55/97/41 53/95/41 49/87/41
f 52/94/42 50/90/42 54/96/42
