# This file uses centimeters as units for non-parametric coordinates.

mtllib AguaCazuela_Picapiedras.mtl
g default
v 0.038018 30.755481 12.314437
v 7.129643 30.755481 -7.771157
v -13.353049 30.755481 -3.708270
v 9.229456 30.755481 4.264944
v -4.161610 30.755481 -11.757761
v -11.253235 30.755481 8.327831
v -2.061796 30.755481 0.278340
v -6.156147 30.755481 11.874760
v 5.669539 30.755481 9.529050
v 3.583833 30.755481 2.271640
v -6.657516 30.755481 4.303086
v -1.011891 30.755481 6.296386
v 9.763894 30.755481 -2.067369
v 2.032554 30.755481 -11.318085
v -3.111701 30.755481 -5.739711
v 2.533924 30.755481 -3.746411
v -9.793131 30.755481 -8.972376
v -13.887482 30.755481 2.624049
v -7.707420 30.755481 -1.714965
v -8.955377 30.755481 6.315456
v -8.939029 30.755481 10.447810
v -3.584017 30.755481 9.085573
v -3.834703 30.755481 5.299735
v -6.269699 30.755481 7.700514
v -3.094246 30.755481 12.511428
v 3.027179 30.755481 11.297202
v 2.328826 30.755481 7.912718
v -0.365121 30.755481 10.003660
v 7.785020 30.755481 7.130479
v 6.406644 30.755481 3.268295
v 1.285970 30.755481 4.284015
v 4.367733 30.755481 5.590506
v 0.761016 30.755481 1.274990
v -4.359653 30.755481 2.290711
v -1.536841 30.755481 3.287361
v 9.904412 30.755481 1.127727
v 6.148908 30.755481 -2.906890
v 3.058878 30.755481 -0.737385
v 6.277774 30.755481 0.180702
v 8.817470 30.755481 -5.102614
v 4.815437 30.755481 -9.891135
v 2.283241 30.755481 -7.532248
v 5.365004 30.755481 -6.225757
v -1.029346 30.755481 -11.954753
v -3.636656 30.755481 -8.748736
v -0.288889 30.755481 -4.743061
v -0.676710 30.755481 -8.140490
v -2.586751 30.755481 -2.730686
v 0.236066 30.755481 -1.734035
v -7.150776 30.755481 -10.740528
v -8.750276 30.755481 -5.343668
v -5.409563 30.755481 -3.727340
v -6.193468 30.755481 -7.046203
v -11.908612 30.755481 -6.573804
v -14.028004 30.755481 -0.571052
v -10.797451 30.755481 0.454540
v -11.185272 30.755481 -2.942889
v -12.941062 30.755481 5.659289
v -7.182470 30.755481 1.294060
v -9.876416 30.755481 3.384998
v -4.884608 30.755481 -0.718315
vt 0.283494 0.500000
vt 0.283494 0.625000
vt 0.175240 0.687500
vt 0.158494 0.562500
vt 0.066987 0.750000
vt 0.017037 0.629409
vt 0.000000 0.500000
vt 0.141747 0.437500
vt 0.283494 0.375000
vt 0.017037 0.370590
vt 0.150120 0.297997
vt 0.066987 0.250000
vt 0.146447 0.146447
vt 0.250000 0.066987
vt 0.266747 0.220994
vt 0.370591 0.017037
vt 0.383373 0.172997
vt 0.500000 0.000000
vt 0.500000 0.125000
vt 0.500000 0.250000
vt 0.391747 0.312500
vt 0.500000 0.375000
vt 0.391747 0.437500
vt 0.500000 0.500000
vt 0.391747 0.562500
vt 0.608253 0.312500
vt 0.616627 0.172997
vt 0.629410 0.017037
vt 0.750000 0.066987
vt 0.733253 0.220994
vt 0.716506 0.375000
vt 0.853553 0.146447
vt 0.849880 0.297997
vt 0.933013 0.250000
vt 0.982963 0.370591
vt 1.000000 0.500000
vt 0.858253 0.437500
vt 0.982963 0.629410
vt 0.841506 0.562500
vt 0.933013 0.750000
vt 0.824759 0.687500
vt 0.716506 0.625000
vt 0.716506 0.500000
vt 0.608253 0.562500
vt 0.608253 0.437500
vt 0.608253 0.687500
vt 0.724880 0.764503
vt 0.853553 0.853553
vt 0.750000 0.933013
vt 0.625000 0.841506
vt 0.500000 0.750000
vt 0.629409 0.982963
vt 0.500000 0.904006
vt 0.500000 1.000000
vt 0.370590 0.982963
vt 0.250000 0.933013
vt 0.375000 0.841506
vt 0.146447 0.853553
vt 0.275120 0.764503
vt 0.391747 0.687500
vt 0.500000 0.625000
vn 0.000000 1.000000 0.000000
vn 0.000000 1.000000 0.000000
vn 0.000000 1.000000 0.000000
vn 0.000000 1.000000 0.000000
vn 0.000000 1.000000 0.000000
vn 0.000000 1.000000 0.000000
vn 0.000000 1.000000 0.000000
vn 0.000000 1.000000 0.000000
vn 0.000000 1.000000 0.000000
vn 0.000000 1.000000 0.000000
vn 0.000000 1.000000 0.000000
vn 0.000000 1.000000 0.000000
vn 0.000000 1.000000 0.000000
vn 0.000000 1.000000 0.000000
vn 0.000000 1.000000 0.000000
vn 0.000000 1.000000 0.000000
vn 0.000000 1.000000 0.000000
vn 0.000000 1.000000 0.000000
vn 0.000000 1.000000 0.000000
vn 0.000000 1.000000 0.000000
vn 0.000000 1.000000 0.000000
vn 0.000000 1.000000 0.000000
vn 0.000000 1.000000 0.000000
vn 0.000000 1.000000 0.000000
vn 0.000000 1.000000 0.000000
vn 0.000000 1.000000 0.000000
vn 0.000000 1.000000 0.000000
vn 0.000000 1.000000 0.000000
vn 0.000000 1.000000 0.000000
vn 0.000000 1.000000 0.000000
vn 0.000000 1.000000 0.000000
vn 0.000000 1.000000 0.000000
vn 0.000000 1.000000 0.000000
vn 0.000000 1.000000 0.000000
vn 0.000000 1.000000 0.000000
vn 0.000000 1.000000 0.000000
vn 0.000000 1.000000 0.000000
vn 0.000000 1.000000 0.000000
vn 0.000000 1.000000 0.000000
vn 0.000000 1.000000 0.000000
vn 0.000000 1.000000 0.000000
vn 0.000000 1.000000 0.000000
vn 0.000000 1.000000 0.000000
vn 0.000000 1.000000 0.000000
vn 0.000000 1.000000 0.000000
vn 0.000000 1.000000 0.000000
vn 0.000000 1.000000 0.000000
vn 0.000000 1.000000 0.000000
vn 0.000000 1.000000 0.000000
vn 0.000000 1.000000 0.000000
vn 0.000000 1.000000 0.000000
vn 0.000000 1.000000 0.000000
vn 0.000000 1.000000 0.000000
vn 0.000000 1.000000 0.000000
vn 0.000000 1.000000 0.000000
vn 0.000000 1.000000 0.000000
vn 0.000000 1.000000 0.000000
vn 0.000000 1.000000 0.000000
vn 0.000000 1.000000 0.000000
vn 0.000000 1.000000 0.000000
vn 0.000000 1.000000 0.000000
vn 0.000000 1.000000 0.000000
vn 0.000000 1.000000 0.000000
vn 0.000000 1.000000 0.000000
vn 0.000000 1.000000 0.000000
vn 0.000000 1.000000 0.000000
vn 0.000000 1.000000 0.000000
vn 0.000000 1.000000 0.000000
vn 0.000000 1.000000 0.000000
vn 0.000000 1.000000 0.000000
vn 0.000000 1.000000 0.000000
vn 0.000000 1.000000 0.000000
vn 0.000000 1.000000 0.000000
vn 0.000000 1.000000 0.000000
vn 0.000000 1.000000 0.000000
vn 0.000000 1.000000 0.000000
vn 0.000000 1.000000 0.000000
vn 0.000000 1.000000 0.000000
vn 0.000000 1.000000 0.000000
vn 0.000000 1.000000 0.000000
vn 0.000000 1.000000 0.000000
vn 0.000000 1.000000 0.000000
vn 0.000000 1.000000 0.000000
vn 0.000000 1.000000 0.000000
vn 0.000000 1.000000 0.000000
vn 0.000000 1.000000 0.000000
vn 0.000000 1.000000 0.000000
vn 0.000000 1.000000 0.000000
vn 0.000000 1.000000 0.000000
vn 0.000000 1.000000 0.000000
vn 0.000000 1.000000 0.000000
vn 0.000000 1.000000 0.000000
vn 0.000000 1.000000 0.000000
vn 0.000000 1.000000 0.000000
vn 0.000000 1.000000 0.000000
vn 0.000000 1.000000 0.000000
vn 0.000000 1.000000 0.000000
vn 0.000000 1.000000 0.000000
vn 0.000000 1.000000 0.000000
vn 0.000000 1.000000 0.000000
vn 0.000000 1.000000 0.000000
vn 0.000000 1.000000 0.000000
vn 0.000000 1.000000 0.000000
vn 0.000000 1.000000 0.000000
vn 0.000000 1.000000 0.000000
vn 0.000000 1.000000 0.000000
vn 0.000000 1.000000 0.000000
vn 0.000000 1.000000 0.000000
vn 0.000000 1.000000 0.000000
vn 0.000000 1.000000 0.000000
vn 0.000000 1.000000 0.000000
vn 0.000000 1.000000 0.000000
vn 0.000000 1.000000 0.000000
vn 0.000000 1.000000 0.000000
vn 0.000000 1.000000 0.000000
vn 0.000000 1.000000 0.000000
vn 0.000000 1.000000 0.000000
vn 0.000000 1.000000 0.000000
vn 0.000000 1.000000 0.000000
vn 0.000000 1.000000 0.000000
vn 0.000000 1.000000 0.000000
vn 0.000000 1.000000 0.000000
vn 0.000000 1.000000 0.000000
vn 0.000000 1.000000 0.000000
vn 0.000000 1.000000 0.000000
vn 0.000000 1.000000 0.000000
vn 0.000000 1.000000 0.000000
vn 0.000000 1.000000 0.000000
vn 0.000000 1.000000 0.000000
vn 0.000000 1.000000 0.000000
vn 0.000000 1.000000 0.000000
vn 0.000000 1.000000 0.000000
vn 0.000000 1.000000 0.000000
vn 0.000000 1.000000 0.000000
vn 0.000000 1.000000 0.000000
vn 0.000000 1.000000 0.000000
vn 0.000000 1.000000 0.000000
vn 0.000000 1.000000 0.000000
vn 0.000000 1.000000 0.000000
vn 0.000000 1.000000 0.000000
vn 0.000000 1.000000 0.000000
vn 0.000000 1.000000 0.000000
vn 0.000000 1.000000 0.000000
vn 0.000000 1.000000 0.000000
vn 0.000000 1.000000 0.000000
vn 0.000000 1.000000 0.000000
vn 0.000000 1.000000 0.000000
vn 0.000000 1.000000 0.000000
vn 0.000000 1.000000 0.000000
vn 0.000000 1.000000 0.000000
vn 0.000000 1.000000 0.000000
vn 0.000000 1.000000 0.000000
vn 0.000000 1.000000 0.000000
vn 0.000000 1.000000 0.000000
vn 0.000000 1.000000 0.000000
vn 0.000000 1.000000 0.000000
vn 0.000000 1.000000 0.000000
vn 0.000000 1.000000 0.000000
vn 0.000000 1.000000 0.000000
vn 0.000000 1.000000 0.000000
vn 0.000000 1.000000 0.000000
vn 0.000000 1.000000 0.000000
vn 0.000000 1.000000 0.000000
vn 0.000000 1.000000 0.000000
vn 0.000000 1.000000 0.000000
vn 0.000000 1.000000 0.000000
vn 0.000000 1.000000 0.000000
vn 0.000000 1.000000 0.000000
vn 0.000000 1.000000 0.000000
vn 0.000000 1.000000 0.000000
vn 0.000000 1.000000 0.000000
vn 0.000000 1.000000 0.000000
vn 0.000000 1.000000 0.000000
vn 0.000000 1.000000 0.000000
vn 0.000000 1.000000 0.000000
vn 0.000000 1.000000 0.000000
vn 0.000000 1.000000 0.000000
vn 0.000000 1.000000 0.000000
vn 0.000000 1.000000 0.000000
vn 0.000000 1.000000 0.000000
vn 0.000000 1.000000 0.000000
vn 0.000000 1.000000 0.000000
vn 0.000000 1.000000 0.000000
vn 0.000000 1.000000 0.000000
vn 0.000000 1.000000 0.000000
vn 0.000000 1.000000 0.000000
vn 0.000000 1.000000 0.000000
vn 0.000000 1.000000 0.000000
vn 0.000000 1.000000 0.000000
vn 0.000000 1.000000 0.000000
vn 0.000000 1.000000 0.000000
vn 0.000000 1.000000 0.000000
s off
g AguaCazuela_Picapiedras:pDisc1
usemtl AguaCazuela_Picapiedras:lambert2SG
f 23/1/1 11/2/2 20/3/3 24/4/4
f 20/3/5 6/5/6 21/6/7 24/4/8
f 21/6/9 8/7/10 22/8/11 24/4/12
f 22/8/13 12/9/14 23/1/15 24/4/16
f 22/8/17 8/7/18 25/10/19 28/11/20
f 25/10/21 1/12/22 26/13/23 28/11/24
f 26/13/25 9/14/26 27/15/27 28/11/28
f 27/15/29 12/9/30 22/8/31 28/11/32
f 27/15/33 9/14/34 29/16/35 32/17/36
f 29/16/37 4/18/38 30/19/39 32/17/40
f 30/19/41 10/20/42 31/21/43 32/17/44
f 31/21/45 12/9/46 27/15/47 32/17/48
f 31/21/49 10/20/50 33/22/51 35/23/52
f 33/22/53 7/24/54 34/25/55 35/23/56
f 34/25/57 11/2/58 23/1/59 35/23/60
f 23/1/61 12/9/62 31/21/63 35/23/64
f 38/26/65 10/20/66 30/19/67 39/27/68
f 30/19/69 4/18/70 36/28/71 39/27/72
f 36/28/73 13/29/74 37/30/75 39/27/76
f 37/30/77 16/31/78 38/26/79 39/27/80
f 37/30/81 13/29/82 40/32/83 43/33/84
f 40/32/85 2/34/86 41/35/87 43/33/88
f 41/35/89 14/36/90 42/37/91 43/33/92
f 42/37/93 16/31/94 37/30/95 43/33/96
f 42/37/97 14/36/98 44/38/99 47/39/100
f 44/38/101 5/40/102 45/41/103 47/39/104
f 45/41/105 15/42/106 46/43/107 47/39/108
f 46/43/109 16/31/110 42/37/111 47/39/112
f 46/43/113 15/42/114 48/44/115 49/45/116
f 48/44/117 7/24/118 33/22/119 49/45/120
f 33/22/121 10/20/122 38/26/123 49/45/124
f 38/26/125 16/31/126 46/43/127 49/45/128
f 52/46/129 15/42/130 45/41/131 53/47/132
f 45/41/133 5/40/134 50/48/135 53/47/136
f 50/48/137 17/49/138 51/50/139 53/47/140
f 51/50/141 19/51/142 52/46/143 53/47/144
f 51/50/145 17/49/146 54/52/147 57/53/148
f 54/52/149 3/54/150 55/55/151 57/53/152
f 55/55/153 18/56/154 56/57/155 57/53/156
f 56/57/157 19/51/158 51/50/159 57/53/160
f 56/57/161 18/56/162 58/58/163 60/59/164
f 58/58/165 6/5/166 20/3/167 60/59/168
f 20/3/169 11/2/170 59/60/171 60/59/172
f 59/60/173 19/51/174 56/57/175 60/59/176
f 59/60/177 11/2/178 34/25/179 61/61/180
f 34/25/181 7/24/182 48/44/183 61/61/184
f 48/44/185 15/42/186 52/46/187 61/61/188
f 52/46/189 19/51/190 59/60/191 61/61/192
