# This file uses centimeters as units for non-parametric coordinates.

mtllib brazoDer.mtl
g default
v 11.089589 5.439519 -2.567872
v 11.490139 2.192477 5.558327
v 7.769275 -4.053877 0.018515
v 4.721923 1.107455 -9.662310
v 9.175096 4.137045 -4.700893
v 13.686769 1.590973 5.553905
v 14.177013 2.087366 -2.698862
v 7.729613 -3.563450 2.041427
v 6.548061 -0.781012 -8.280270
v 13.038376 -0.890450 -5.354155
v 15.990128 0.858125 9.582061
v 16.944215 -3.035418 6.722732
v 10.415725 -3.594211 12.146044
v 12.927077 -9.161948 4.595433
v 14.663262 -8.456685 5.304614
v 9.947663 -9.283035 12.671975
v 13.238995 -6.315304 14.501493
v 12.883197 -8.554181 6.356624
v 15.432057 -15.105506 6.883391
v 15.862110 -7.829691 10.008323
v 15.894584 -14.838321 4.166161
v 13.305260 -15.101639 6.628413
v 11.206739 -15.097830 6.376835
v 12.320390 -15.116225 3.435988
v 12.850686 -9.998994 4.704317
v 14.247812 -8.526592 5.007745
v 14.043830 -15.063650 4.052429
v 14.824367 -7.489685 7.531006
v 15.702250 -6.286230 9.156263
v 15.770727 -15.349021 6.506339
v 15.230788 -16.216554 4.240658
v 13.635477 -15.356041 6.309214
v 14.670842 -16.218117 4.212289
v 11.762802 -15.367300 5.955218
v 12.697812 -16.423173 3.817219
v 13.567520 -16.198030 4.114720
v 13.053776 -15.387028 6.119629
v 16.015840 -16.733326 7.060751
v 15.643396 -18.023075 4.958011
v 13.587602 -16.798440 6.860855
v 14.674631 -18.205635 4.940828
v 12.493440 -18.393900 4.673200
v 11.653436 -16.772170 6.593004
v 13.292089 -18.069724 4.950339
v 13.088293 -16.741874 6.769826
v 16.364614 -17.098375 8.429508
v 15.694039 -19.477493 7.777827
v 13.687216 -17.282609 8.328243
v 14.729900 -19.622435 7.890184
v 12.211990 -19.720897 7.859011
v 11.598317 -17.224723 8.150176
v 13.361923 -19.294838 7.839429
v 13.092827 -17.081677 8.258428
v 16.651303 -17.218407 9.382389
v 15.780313 -19.684764 9.427756
v 13.640233 -17.423724 9.337153
v 14.827005 -19.792159 9.576413
v 12.057832 -19.757735 9.603741
v 11.376909 -17.280695 9.179485
v 14.205176 -19.354491 9.464874
v 12.851894 -17.112943 9.243020
v 15.511013 -16.802471 11.932365
v 10.554276 -16.648258 11.844827
vn -0.078103 0.617320 0.782826
vn 0.590684 0.801778 -0.090798
vn 0.954966 -0.295890 0.022099
vn -0.085902 -0.178303 -0.980219
vn -0.349196 -0.930488 -0.110699
vn -0.078103 0.617320 0.782826
vn -0.085902 -0.178303 -0.980219
vn 0.608724 -0.790632 -0.066003
vn 0.788586 0.420592 -0.448592
vn 0.623433 0.390921 -0.677136
vn 0.954966 -0.295890 0.022099
vn 0.590684 0.801778 -0.090798
vn 0.133997 0.919481 -0.369593
vn 0.942767 0.333388 -0.006500
vn 0.590684 0.801778 -0.090798
vn -0.078103 0.617320 0.782826
vn -0.944328 0.326010 -0.044301
vn 0.133997 0.919481 -0.369593
vn -0.078103 0.617320 0.782826
vn -0.349196 -0.930488 -0.110699
vn -0.726583 -0.455389 -0.514488
vn -0.944328 0.326010 -0.044301
vn -0.349196 -0.930488 -0.110699
vn 0.730163 0.587370 -0.349082
vn 0.797508 -0.233702 -0.556205
vn 0.788586 0.420592 -0.448592
vn 0.590684 0.801778 -0.090798
vn 0.942767 0.333388 -0.006500
vn 0.036999 0.086497 0.995565
vn 0.187098 -0.707793 0.681193
vn 0.133997 0.919481 -0.369593
vn -0.944328 0.326010 -0.044301
vn -0.944328 0.326010 -0.044301
vn -0.726583 -0.455389 -0.514488
vn -0.523293 -0.704790 -0.478994
vn 0.036999 0.086497 0.995565
vn 0.808199 0.139700 0.572100
vn 0.906541 0.418319 -0.056503
vn 0.965347 -0.123106 -0.230111
vn 0.187098 -0.707793 0.681193
vn -0.051297 -0.664463 0.745559
vn 0.808199 0.139700 0.572100
vn 0.187098 -0.707793 0.681193
vn -0.424395 -0.050099 0.904090
vn -0.667994 0.522996 -0.529395
vn -0.424395 -0.050099 0.904090
vn 0.036999 0.086497 0.995565
vn -0.762735 -0.179408 -0.621328
vn 0.906541 0.418319 -0.056503
vn 0.647476 -0.469383 -0.600378
vn 0.821304 0.072200 -0.565903
vn 0.965347 -0.123106 -0.230111
vn -0.762735 -0.179408 -0.621328
vn 0.821304 0.072200 -0.565903
vn 0.647476 -0.469383 -0.600378
vn -0.667994 0.522996 -0.529395
vn -0.523293 -0.704790 -0.478994
vn 0.897508 -0.426904 0.110601
vn 0.821304 0.072200 -0.565903
vn -0.762735 -0.179408 -0.621328
vn 0.788586 0.420592 -0.448592
vn 0.797508 -0.233702 -0.556205
vn -0.726583 -0.455389 -0.514488
vn 0.730163 0.587370 -0.349082
vn 0.623433 0.390921 -0.677136
vn 0.788586 0.420592 -0.448592
vn 0.730163 0.587370 -0.349082
vn 0.638266 -0.662665 -0.391779
vn 0.897508 -0.426904 0.110601
vn -0.523293 -0.704790 -0.478994
vn -0.726583 -0.455389 -0.514488
vn 0.797508 -0.233702 -0.556205
vn 0.775134 -0.553624 0.304413
vn 0.897508 -0.426904 0.110601
vn 0.797508 -0.233702 -0.556205
vn 0.942767 0.333388 -0.006500
vn 0.187098 -0.707793 0.681193
vn 0.775134 -0.553624 0.304413
vn 0.942767 0.333388 -0.006500
vn 0.133997 0.919481 -0.369593
vn 0.513189 0.072799 0.855182
vn 0.173795 0.584884 -0.792279
vn 0.906541 0.418319 -0.056503
vn 0.808199 0.139700 0.572100
vn -0.788824 0.175205 0.589118
vn 0.513189 0.072799 0.855182
vn 0.808199 0.139700 0.572100
vn -0.051297 -0.664463 0.745559
vn 0.263693 0.488988 -0.831479
vn -0.788824 0.175205 0.589118
vn -0.051297 -0.664463 0.745559
vn 0.647476 -0.469383 -0.600378
vn 0.173795 0.584884 -0.792279
vn 0.263693 0.488988 -0.831479
vn 0.647476 -0.469383 -0.600378
vn 0.906541 0.418319 -0.056503
vn -0.667994 0.522996 -0.529395
vn -0.178292 0.484977 -0.856160
vn -0.992540 -0.116905 -0.034601
vn -0.424395 -0.050099 0.904090
vn 0.622598 0.219599 -0.751098
vn -0.178292 0.484977 -0.856160
vn -0.667994 0.522996 -0.529395
vn 0.647476 -0.469383 -0.600378
vn 0.793652 -0.077305 0.603440
vn 0.622598 0.219599 -0.751098
vn 0.647476 -0.469383 -0.600378
vn -0.051297 -0.664463 0.745559
vn -0.992540 -0.116905 -0.034601
vn 0.793652 -0.077305 0.603440
vn -0.051297 -0.664463 0.745559
vn -0.424395 -0.050099 0.904090
vn 0.433199 0.899697 0.053700
vn 0.687603 0.305901 -0.658503
vn 0.173795 0.584884 -0.792279
vn 0.513189 0.072799 0.855182
vn -0.318291 0.786277 -0.529584
vn 0.433199 0.899697 0.053700
vn 0.513189 0.072799 0.855182
vn -0.788824 0.175205 0.589118
vn -0.689009 0.040701 -0.723609
vn -0.318291 0.786277 -0.529584
vn -0.788824 0.175205 0.589118
vn 0.263693 0.488988 -0.831479
vn 0.687603 0.305901 -0.658503
vn -0.689009 0.040701 -0.723609
vn 0.263693 0.488988 -0.831479
vn 0.173795 0.584884 -0.792279
vn -0.497906 0.192002 -0.845710
vn -0.582205 0.803607 -0.123501
vn -0.992540 -0.116905 -0.034601
vn -0.178292 0.484977 -0.856160
vn 0.591736 -0.133808 -0.794949
vn -0.497906 0.192002 -0.845710
vn -0.178292 0.484977 -0.856160
vn 0.622598 0.219599 -0.751098
vn 0.224694 0.937875 0.264393
vn 0.591736 -0.133808 -0.794949
vn 0.622598 0.219599 -0.751098
vn 0.793652 -0.077305 0.603440
vn -0.582205 0.803607 -0.123501
vn 0.224694 0.937875 0.264393
vn 0.793652 -0.077305 0.603440
vn -0.992540 -0.116905 -0.034601
vn 0.207901 0.716205 -0.666204
vn 0.503508 -0.374906 -0.778412
vn 0.687603 0.305901 -0.658503
vn 0.433199 0.899697 0.053700
vn -0.468008 0.464808 -0.751613
vn 0.207901 0.716205 -0.666204
vn 0.433199 0.899697 0.053700
vn -0.318291 0.786277 -0.529584
vn -0.339105 -0.516908 -0.786012
vn -0.468008 0.464808 -0.751613
vn -0.318291 0.786277 -0.529584
vn -0.689009 0.040701 -0.723609
vn 0.503508 -0.374906 -0.778412
vn -0.339105 -0.516908 -0.786012
vn -0.689009 0.040701 -0.723609
vn 0.687603 0.305901 -0.658503
vn -0.120202 -0.421105 -0.899012
vn -0.427919 0.564525 -0.705831
vn -0.582205 0.803607 -0.123501
vn -0.497906 0.192002 -0.845710
vn 0.606097 -0.341398 -0.718396
vn -0.120202 -0.421105 -0.899012
vn -0.497906 0.192002 -0.845710
vn 0.591736 -0.133808 -0.794949
vn 0.243600 0.735600 -0.632100
vn 0.606097 -0.341398 -0.718396
vn 0.591736 -0.133808 -0.794949
vn 0.224694 0.937875 0.264393
vn -0.427919 0.564525 -0.705831
vn 0.243600 0.735600 -0.632100
vn 0.224694 0.937875 0.264393
vn -0.582205 0.803607 -0.123501
vn 0.959968 0.235992 0.150895
vn 0.605496 -0.739195 -0.294898
vn 0.503508 -0.374906 -0.778412
vn 0.207901 0.716205 -0.666204
vn -0.757640 -0.046202 -0.651035
vn 0.959968 0.235992 0.150895
vn 0.207901 0.716205 -0.666204
vn -0.468008 0.464808 -0.751613
vn -0.938158 -0.046398 0.343085
vn -0.757640 -0.046202 -0.651035
vn -0.468008 0.464808 -0.751613
vn -0.339105 -0.516908 -0.786012
vn 0.605496 -0.739195 -0.294898
vn -0.938158 -0.046398 0.343085
vn -0.339105 -0.516908 -0.786012
vn 0.503508 -0.374906 -0.778412
vn -0.971661 0.034199 0.233891
vn -0.747578 0.448487 0.489885
vn -0.427919 0.564525 -0.705831
vn -0.120202 -0.421105 -0.899012
vn 0.316590 -0.755876 0.573082
vn -0.971661 0.034199 0.233891
vn -0.120202 -0.421105 -0.899012
vn 0.606097 -0.341398 -0.718396
vn 0.733005 0.664105 0.147201
vn 0.316590 -0.755876 0.573082
vn 0.606097 -0.341398 -0.718396
vn 0.243600 0.735600 -0.632100
vn -0.747578 0.448487 0.489885
vn 0.733005 0.664105 0.147201
vn 0.243600 0.735600 -0.632100
vn -0.427919 0.564525 -0.705831
vn 0.959968 0.235992 0.150895
vn 0.485498 0.725697 0.487498
vn 0.605496 -0.739195 -0.294898
vn 0.187098 -0.707793 0.681193
vn 0.965347 -0.123106 -0.230111
vn 0.775134 -0.553624 0.304413
vn 0.965347 -0.123106 -0.230111
vn 0.821304 0.072200 -0.565903
vn 0.897508 -0.426904 0.110601
vn 0.187098 -0.707793 0.681193
vn 0.036999 0.086497 0.995565
vn -0.424395 -0.050099 0.904090
vn 0.733005 0.664105 0.147201
vn -0.160799 0.563097 0.810596
vn 0.316590 -0.755876 0.573082
vn 0.897508 -0.426904 0.110601
vn 0.775134 -0.553624 0.304413
vn 0.965347 -0.123106 -0.230111
vn -0.523293 -0.704790 -0.478994
vn -0.762735 -0.179408 -0.621328
vn 0.036999 0.086497 0.995565
vn -0.971661 0.034199 0.233891
vn 0.316590 -0.755876 0.573082
vn -0.160799 0.563097 0.810596
vn 0.733005 0.664105 0.147201
vn -0.747578 0.448487 0.489885
vn -0.160799 0.563097 0.810596
vn -0.160799 0.563097 0.810596
vn -0.747578 0.448487 0.489885
vn -0.971661 0.034199 0.233891
vn -0.938158 -0.046398 0.343085
vn 0.605496 -0.739195 -0.294898
vn 0.485498 0.725697 0.487498
vn 0.959968 0.235992 0.150895
vn -0.757640 -0.046202 -0.651035
vn 0.485498 0.725697 0.487498
vn 0.485498 0.725697 0.487498
vn -0.757640 -0.046202 -0.651035
vn -0.938158 -0.046398 0.343085
s off
g polySurface61 polySurface56 polySurface55 polySurface52 dino1:Mesh
usemtl lambert14SG
f 6//1 7//2 1//3 2//4
f 8//5 6//6 2//7 3//8
f 10//9 5//10 1//11 7//12
f 11//13 12//14 7//15 6//16
f 13//17 11//18 6//19 8//20
f 14//21 13//22 8//23 9//24
f 15//25 10//26 7//27 12//28
f 16//29 17//30 11//31 13//32
f 13//33 14//34 18//35 16//36
f 19//37 21//38 20//39 17//40
f 22//41 19//42 17//43 23//44
f 24//45 23//46 16//47 25//48
f 21//49 27//50 26//51 20//52
f 25//53 26//54 27//55 24//56
f 18//57 28//58 26//59 25//60
f 10//61 15//62 14//63 9//64
f 5//65 10//66 9//67 4//68
f 28//69 18//70 14//71 15//72
f 29//73 28//74 15//75 12//76
f 17//77 29//78 12//79 11//80
f 30//81 31//82 21//83 19//84
f 32//85 30//86 19//87 22//88
f 33//89 32//90 22//91 27//92
f 31//93 33//94 27//95 21//96
f 24//97 35//98 34//99 23//100
f 36//101 35//102 24//103 27//104
f 37//105 36//106 27//107 22//108
f 34//109 37//110 22//111 23//112
f 38//113 39//114 31//115 30//116
f 40//117 38//118 30//119 32//120
f 41//121 40//122 32//123 33//124
f 39//125 41//126 33//127 31//128
f 42//129 43//130 34//131 35//132
f 44//133 42//134 35//135 36//136
f 45//137 44//138 36//139 37//140
f 43//141 45//142 37//143 34//144
f 46//145 47//146 39//147 38//148
f 48//149 46//150 38//151 40//152
f 49//153 48//154 40//155 41//156
f 47//157 49//158 41//159 39//160
f 50//161 51//162 43//163 42//164
f 52//165 50//166 42//167 44//168
f 53//169 52//170 44//171 45//172
f 51//173 53//174 45//175 43//176
f 54//177 55//178 47//179 46//180
f 56//181 54//182 46//183 48//184
f 57//185 56//186 48//187 49//188
f 55//189 57//190 49//191 47//192
f 58//193 59//194 51//195 50//196
f 60//197 58//198 50//199 52//200
f 61//201 60//202 52//203 53//204
f 59//205 61//206 53//207 51//208
f 54//209 62//210 55//211
f 17//212 20//213 29//214
f 20//215 26//216 28//217
f 17//218 16//219 23//220
f 61//221 63//222 60//223
f 28//224 29//225 20//226
f 18//227 25//228 16//229
f 58//230 60//231 63//232
f 61//233 59//234 63//235
f 63//236 59//237 58//238
f 57//239 55//240 62//241
f 54//242 56//243 62//244
f 62//245 56//246 57//247
