# This file uses centimeters as units for non-parametric coordinates.

mtllib lavatrastesPuertaI.mtl
g default
v 0.782965 0.301855 7.887889
v -0.773639 0.301855 8.285370
v 1.284068 0.301855 6.457944
v 1.284068 0.496979 6.457944
v -0.773639 0.496979 8.285370
v 0.782965 0.496979 7.887889
v -3.205986 0.301855 7.888334
v -3.941202 0.301855 7.247913
v -4.206920 0.301855 6.361013
v -2.168659 0.301855 8.155466
v -4.206920 0.496979 6.361013
v -3.941202 0.496979 7.247913
v -3.205986 0.496979 7.888334
v -2.168659 0.496979 8.155466
v -4.114370 0.301855 3.194944
v -3.881563 0.301855 3.098512
v -4.210802 0.301855 3.427751
v -4.210802 0.496979 3.427751
v -3.881563 0.496979 3.098512
v -4.114370 0.496979 3.194944
v -0.603402 0.301855 3.103639
v 0.181843 0.301855 3.325927
v 0.789775 0.301855 3.941456
v 1.082705 0.301855 4.793234
v -0.603402 0.496979 3.103639
v 1.082705 0.496979 4.793234
v 0.789775 0.496979 3.941456
v 0.181843 0.496979 3.325927
vt 0.875000 0.150010
vt 0.625000 0.250000
vt 0.875000 0.250000
vt 0.525010 0.500000
vt 0.464997 0.500000
vt 0.417903 0.284337
vt 0.375000 0.250000
vt 0.125000 0.250000
vt 0.125000 0.160003
vt 0.390999 1.000000
vt 0.125000 0.015999
vt 0.375000 0.000000
vt 0.375000 1.000000
vt 0.125000 0.000000
vt 0.875000 0.074997
vt 0.625000 0.150010
vt 0.550002 1.000000
vt 0.625000 0.074998
vt 0.550003 0.750000
vt 0.525010 0.250000
vt 0.464997 0.250000
vt 0.375000 0.160003
vt 0.375000 0.015999
vt 0.361744 1.000000
vt 0.101593 0.909291
vt 0.390999 0.750000
vt 0.375000 0.750000
vt 0.028876 0.655845
vt 0.028876 0.059772
vt 0.375000 0.500000
vt 0.419508 0.449469
vt 0.625000 0.500000
vt 0.046477 0.017468
vt 0.088836 -0.000000
vt 0.028876 0.626365
vt 0.576057 0.913148
vt 0.758087 0.035073
vt 0.602112 0.826297
vt 0.625000 0.750000
vt 0.875000 0.000000
vt 0.587501 0.750000
vt 0.622193 0.001540
vt 0.783383 0.050108
vt 0.899623 0.183975
vt 0.947900 0.372670
vt 0.971124 0.626365
vt 0.898407 0.909291
vt 0.638256 1.000000
vt 0.335617 0.962913
vt 0.180821 0.909407
vt 0.069071 0.798691
vt 0.052100 0.372670
vt 0.100378 0.183975
vt 0.216617 0.050108
vt 0.377807 0.001540
vt 0.911165 0.000000
vt 0.953524 0.017468
vt 0.971124 0.059772
vt 0.971124 0.655845
vt 0.930929 0.798690
vt 0.819179 0.909406
vt 0.664383 0.962913
vn -0.161099 0.000000 0.986938
vn -0.161099 0.000000 0.986938
vn 0.090284 0.000000 0.995916
vn 0.090284 0.000000 0.995916
vn -0.025997 0.000000 -0.999662
vn -0.025997 0.000000 -0.999662
vn 0.055879 -0.000000 -0.998438
vn 0.055879 -0.000000 -0.998438
vn 0.981250 -0.000000 -0.192739
vn 0.981250 -0.000000 -0.192739
vn 0.995342 0.000000 0.096406
vn 0.995342 0.000000 0.096406
vn -0.999573 0.000000 -0.029219
vn -0.999573 0.000000 -0.029219
vn -0.997519 0.000000 0.070398
vn -0.997519 0.000000 0.070398
vn 0.247413 0.000000 0.968910
vn 0.247413 0.000000 0.968910
vn 0.943730 0.000000 0.330716
vn 0.943730 0.000000 0.330716
vn -0.957931 0.000000 0.286998
vn -0.957931 0.000000 0.286998
vn -0.656822 0.000000 0.754045
vn -0.656822 0.000000 0.754045
vn -0.656822 0.000000 0.754045
vn -0.656822 0.000000 0.754045
vn -0.249383 0.000000 0.968405
vn -0.249383 0.000000 0.968405
vn -0.382685 0.000000 -0.923879
vn -0.382685 0.000000 -0.923879
vn -0.923880 0.000000 -0.382682
vn -0.923880 0.000000 -0.382682
vn 0.852201 -0.000001 -0.523214
vn 0.852201 -0.000001 -0.523214
vn 0.711484 -0.000001 -0.702703
vn 0.711484 -0.000001 -0.702703
vn 0.272378 -0.000001 -0.962190
vn 0.272378 -0.000001 -0.962190
vn -0.000000 -1.000000 0.000000
vn -0.000000 -1.000000 0.000000
vn -0.000000 -1.000000 0.000000
vn -0.000000 -1.000000 0.000000
vn -0.000000 -1.000000 0.000000
vn -0.000000 -1.000000 0.000000
vn -0.000000 -1.000000 0.000000
vn -0.000000 -1.000000 0.000000
vn -0.000000 -1.000000 0.000000
vn -0.000000 -1.000000 0.000000
vn -0.000000 -1.000000 0.000000
vn -0.000000 -1.000000 0.000000
vn -0.000000 -1.000000 0.000000
vn -0.000000 -1.000000 0.000000
vn -0.000000 1.000000 0.000000
vn -0.000000 1.000000 0.000000
vn -0.000000 1.000000 0.000000
vn -0.000000 1.000000 0.000000
vn -0.000000 1.000000 0.000000
vn -0.000000 1.000000 0.000000
vn -0.000000 1.000000 0.000000
vn -0.000000 1.000000 0.000000
vn -0.000000 1.000000 0.000000
vn -0.000000 1.000000 0.000000
vn -0.000000 1.000000 0.000000
vn -0.000000 1.000000 0.000000
vn -0.000000 1.000000 0.000000
vn -0.000000 1.000000 0.000000
s 1
g pasted__pasted__pCube10 pasted__group5 group7
usemtl lambert3SG
f 14/5/1 10/21/2 2/20/3 5/4/4
s 2
f 16/10/5 19/26/6 25/19/7 21/17/8
s 3
f 24/18/9 26/15/10 4/1/11 3/16/12
s 4
f 18/11/13 17/23/14 9/22/15 11/9/16
s 1
f 2/20/3 1/2/17 6/32/18 5/4/4
s 3
f 1/2/19 3/16/12 4/1/11 6/3/20
s 4
f 9/22/15 8/7/21 12/8/22 11/9/16
s off
f 8/7/23 7/6/24 13/31/25 12/30/26
s 1
f 7/6/27 10/21/2 14/5/1 13/31/28
s 2
f 16/10/5 15/13/29 20/27/30 19/26/6
s 4
f 15/12/31 17/23/14 18/11/13 20/14/32
s 3
f 24/18/9 23/37/33 27/40/34 26/15/10
f 23/38/33 22/36/35 28/41/36 27/39/34
s 2
f 22/36/37 21/17/8 25/19/7 28/41/38
s off
f 3/24/39 1/25/40 2/35/41 10/52/42 7/53/43 8/54/44 9/55/45 17/56/46 15/57/47 16/58/48 21/59/49 22/60/50 23/61/51 24/62/52
f 25/28/53 19/29/54 20/33/55 18/34/56 11/42/57 12/43/58 13/44/59 14/45/60 5/46/61 6/47/62 4/48/63 26/49/64 27/50/65 28/51/66
